<?xml version="1.0" encoding="UTF-8" standalone="no"?>
<!-- Created with Inkscape (http://www.inkscape.org/) -->

<svg
   xmlns:dc="http://purl.org/dc/elements/1.1/"
   xmlns:cc="http://creativecommons.org/ns#"
   xmlns:rdf="http://www.w3.org/1999/02/22-rdf-syntax-ns#"
   xmlns:svg="http://www.w3.org/2000/svg"
   xmlns="http://www.w3.org/2000/svg"
   xmlns:xlink="http://www.w3.org/1999/xlink"
   xmlns:sodipodi="http://sodipodi.sourceforge.net/DTD/sodipodi-0.dtd"
   xmlns:inkscape="http://www.inkscape.org/namespaces/inkscape"
   width="210mm"
   height="297mm"
   id="svg2"
   version="1.1"
   inkscape:version="0.48.4 r9939"
   sodipodi:docname="Neues Dokument 1">
  <defs
     id="defs4" />
  <sodipodi:namedview
     id="base"
     pagecolor="#ffffff"
     bordercolor="#666666"
     borderopacity="1.0"
     inkscape:pageopacity="0.0"
     inkscape:pageshadow="2"
     inkscape:zoom="1.979899"
     inkscape:cx="-31.054748"
     inkscape:cy="82.918631"
     inkscape:document-units="px"
     inkscape:current-layer="layer1"
     showgrid="false"
     inkscape:window-width="1920"
     inkscape:window-height="1017"
     inkscape:window-x="-8"
     inkscape:window-y="-8"
     inkscape:window-maximized="1" />
  <metadata
     id="metadata7">
    <rdf:RDF>
      <cc:Work
         rdf:about="">
        <dc:format>image/svg+xml</dc:format>
        <dc:type
           rdf:resource="http://purl.org/dc/dcmitype/StillImage" />
        <dc:title></dc:title>
      </cc:Work>
    </rdf:RDF>
  </metadata>
  <g
     inkscape:label="Ebene 1"
     inkscape:groupmode="layer"
     id="layer1">
    <image
       y="800.83673"
       x="131.32239"
       id="image3763"
       xlink:href="file:///D:/phi/ld37/web/res/toilet.png"
       height="100"
       width="100" />
    <path
       sodipodi:type="arc"
       style="fill:#ae734a;fill-opacity:1;stroke:#000000;stroke-width:13.1319828;stroke-linecap:round;stroke-linejoin:round;stroke-miterlimit:4;stroke-opacity:1;stroke-dasharray:none"
       id="path2985"
       sodipodi:cx="90.408653"
       sodipodi:cy="972.56012"
       sodipodi:rx="52.527931"
       sodipodi:ry="52.527931"
       d="m 142.93658,972.56012 a 52.527931,52.527931 0 1 1 -105.055858,0 52.527931,52.527931 0 1 1 105.055858,0 z"
       transform="matrix(0.31883975,-0.20811447,0.20811447,0.31883975,-182.26517,706.66155)" />
    <path
       style="fill:#803300;stroke:#000000;stroke-width:3;stroke-linecap:butt;stroke-linejoin:round;stroke-miterlimit:4;stroke-opacity:1;stroke-dasharray:none"
       d="m 47.634923,991.53763 c 0,0 2.331618,-11.51918 9.058725,-18.68714 6.727107,-7.16796 16.504811,-9.66228 16.504811,-9.66228 0,0 -9.407643,8.52488 -12.930808,12.19331 -3.518548,3.66363 -5.045152,8.73926 -7.341949,17.62816 5.887738,-2.31949 29.7668,-3.75713 39.08212,4.55518 0,0 -13.013287,-3.43319 -20.944555,-2.69953 -11.093241,1.02627 -13.995138,3.89899 -15.257864,10.77847 -1.398674,7.6204 1.976091,12.139 2.613028,18.877 0.82962,8.7754 1.195311,17.4239 -2.064931,22.3414 0.565295,-5.8386 0.05244,-10.6237 -0.732885,-15.1624 -1.978546,-11.435 -6.176106,-20.8944 -8.184901,-27.6226 -4.789199,3.334 -20.198068,4.6621 -23.765206,15.8769 -3.567181,11.2149 -3.824076,16.3813 -3.824076,16.3813 0,0 -3.447007,-11.6352 -1.954562,-16.4972 1.492465,-4.862 3.274694,-7.6916 3.274694,-7.6916 0,0 -6.653307,4.8982 -10.070176,6.0176 -3.4168731,1.1196 -7.596388,1.0706 -7.596388,1.0706 0,0 8.544883,-8.3545 16.105716,-11.068 7.560834,-2.7136 21.408726,-4.5321 20.903002,-10.86691 -0.505728,-6.33475 -16.852104,-23.43527 -16.852104,-23.43527 0,0 10.756321,2.97636 15.40602,7.71704 4.649698,4.7407 8.572289,9.95597 8.572289,9.95597 z"
       id="path3766"
       inkscape:connector-curvature="0"
       sodipodi:nodetypes="cscsccssscscscscscsscsc" />
    <path
       sodipodi:type="arc"
       style="fill:#77ab49;fill-opacity:1;stroke:#000000;stroke-width:1.08347261;stroke-linecap:round;stroke-linejoin:round;stroke-miterlimit:4;stroke-opacity:1;stroke-dasharray:none"
       id="path3768"
       sodipodi:cx="79.802048"
       sodipodi:cy="913.0874"
       sodipodi:rx="1.2626907"
       sodipodi:ry="3.4092648"
       d="m 81.064738,913.0874 a 1.2626907,3.4092648 0 1 1 -2.525381,0 1.2626907,3.4092648 0 1 1 2.525381,0 z"
       transform="matrix(2.2121011,-0.62976879,0.40564819,1.4248639,-497.10416,-268.91677)" />
    <path
       transform="matrix(2.2999997,-0.00115897,7.4654904e-4,1.4814814,-129.91401,-379.13952)"
       d="m 81.064738,913.0874 a 1.2626907,3.4092648 0 1 1 -2.525381,0 1.2626907,3.4092648 0 1 1 2.525381,0 z"
       sodipodi:ry="3.4092648"
       sodipodi:rx="1.2626907"
       sodipodi:cy="913.0874"
       sodipodi:cx="79.802048"
       id="path3770"
       style="fill:#3c8b3e;fill-opacity:1;stroke:#000000;stroke-width:1.08347261;stroke-linecap:round;stroke-linejoin:round;stroke-miterlimit:4;stroke-opacity:1;stroke-dasharray:none"
       sodipodi:type="arc" />
    <path
       sodipodi:type="arc"
       style="fill:#71c274;fill-opacity:1;stroke:#000000;stroke-width:1.08347261;stroke-linecap:round;stroke-linejoin:round;stroke-miterlimit:4;stroke-opacity:1;stroke-dasharray:none"
       id="path3772"
       sodipodi:cx="79.802048"
       sodipodi:cy="913.0874"
       sodipodi:rx="1.2626907"
       sodipodi:ry="3.4092648"
       d="m 81.064738,913.0874 a 1.2626907,3.4092648 0 1 1 -2.525381,0 1.2626907,3.4092648 0 1 1 2.525381,0 z"
       transform="matrix(1.9017067,1.2936428,-0.83326427,1.2249319,671.50488,-253.81013)" />
    <path
       transform="matrix(2.2367691,0.53559665,-0.34498979,1.4407532,207.89313,-397.43762)"
       d="m 81.064738,913.0874 a 1.2626907,3.4092648 0 1 1 -2.525381,0 1.2626907,3.4092648 0 1 1 2.525381,0 z"
       sodipodi:ry="3.4092648"
       sodipodi:rx="1.2626907"
       sodipodi:cy="913.0874"
       sodipodi:cx="79.802048"
       id="path3774"
       style="fill:#77ab49;fill-opacity:1;stroke:#000000;stroke-width:1.08347261;stroke-linecap:round;stroke-linejoin:round;stroke-miterlimit:4;stroke-opacity:1;stroke-dasharray:none"
       sodipodi:type="arc" />
    <path
       sodipodi:type="arc"
       style="fill:#3c8b3e;fill-opacity:1;stroke:#000000;stroke-width:1.08347261;stroke-linecap:round;stroke-linejoin:round;stroke-miterlimit:4;stroke-opacity:1;stroke-dasharray:none"
       id="path3776"
       sodipodi:cx="79.802048"
       sodipodi:cy="913.0874"
       sodipodi:rx="1.2626907"
       sodipodi:ry="3.4092648"
       d="m 81.064738,913.0874 a 1.2626907,3.4092648 0 1 1 -2.525381,0 1.2626907,3.4092648 0 1 1 2.525381,0 z"
       transform="matrix(0.52018973,2.2404023,-1.4430933,0.33506589,1340.0541,490.04074)" />
    <path
       transform="matrix(1.1722459,1.978848,-1.2746203,0.75506993,1128.3783,134.22074)"
       d="m 81.064738,913.0874 a 1.2626907,3.4092648 0 1 1 -2.525381,0 1.2626907,3.4092648 0 1 1 2.525381,0 z"
       sodipodi:ry="3.4092648"
       sodipodi:rx="1.2626907"
       sodipodi:cy="913.0874"
       sodipodi:cx="79.802048"
       id="path3778"
       style="fill:#71c274;fill-opacity:1;stroke:#000000;stroke-width:1.08347261;stroke-linecap:round;stroke-linejoin:round;stroke-miterlimit:4;stroke-opacity:1;stroke-dasharray:none"
       sodipodi:type="arc" />
    <path
       sodipodi:type="arc"
       style="fill:#3c8b3e;fill-opacity:1;stroke:#000000;stroke-width:1.08347261;stroke-linecap:round;stroke-linejoin:round;stroke-miterlimit:4;stroke-opacity:1;stroke-dasharray:none"
       id="path3780"
       sodipodi:cx="79.802048"
       sodipodi:cy="913.0874"
       sodipodi:rx="1.2626907"
       sodipodi:ry="3.4092648"
       d="m 81.064738,913.0874 a 1.2626907,3.4092648 0 1 1 -2.525381,0 1.2626907,3.4092648 0 1 1 2.525381,0 z"
       transform="matrix(1.7732971,1.4647242,-0.94346168,1.1422204,779.83357,-168.56979)" />
    <path
       transform="matrix(1.4657742,1.7724294,-1.1416614,0.944138,992.93488,-14.496536)"
       d="m 81.064738,913.0874 a 1.2626907,3.4092648 0 1 1 -2.525381,0 1.2626907,3.4092648 0 1 1 2.525381,0 z"
       sodipodi:ry="3.4092648"
       sodipodi:rx="1.2626907"
       sodipodi:cy="913.0874"
       sodipodi:cx="79.802048"
       id="path3782"
       style="fill:#71c274;fill-opacity:1;stroke:#000000;stroke-width:1.08347261;stroke-linecap:round;stroke-linejoin:round;stroke-miterlimit:4;stroke-opacity:1;stroke-dasharray:none"
       sodipodi:type="arc" />
    <path
       sodipodi:type="arc"
       style="fill:#77ab49;fill-opacity:1;stroke:#000000;stroke-width:1.08347261;stroke-linecap:round;stroke-linejoin:round;stroke-miterlimit:4;stroke-opacity:1;stroke-dasharray:none"
       id="path3784"
       sodipodi:cx="79.802048"
       sodipodi:cy="913.0874"
       sodipodi:rx="1.2626907"
       sodipodi:ry="3.4092648"
       d="m 81.064738,913.0874 a 1.2626907,3.4092648 0 1 1 -2.525381,0 1.2626907,3.4092648 0 1 1 2.525381,0 z"
       transform="matrix(0.83089112,2.1446724,-1.3814315,0.53519562,1273.8622,330.84902)" />
    <path
       transform="matrix(-0.66331748,2.2022738,-1.4185338,-0.42725763,1441.0639,1211.8475)"
       d="m 81.064738,913.0874 a 1.2626907,3.4092648 0 1 1 -2.525381,0 1.2626907,3.4092648 0 1 1 2.525381,0 z"
       sodipodi:ry="3.4092648"
       sodipodi:rx="1.2626907"
       sodipodi:cy="913.0874"
       sodipodi:cx="79.802048"
       id="path3786"
       style="fill:#3c8b3e;fill-opacity:1;stroke:#000000;stroke-width:1.08347261;stroke-linecap:round;stroke-linejoin:round;stroke-miterlimit:4;stroke-opacity:1;stroke-dasharray:none"
       sodipodi:type="arc" />
    <path
       sodipodi:type="arc"
       style="fill:#71c274;fill-opacity:1;stroke:#000000;stroke-width:1.08347261;stroke-linecap:round;stroke-linejoin:round;stroke-miterlimit:4;stroke-opacity:1;stroke-dasharray:none"
       id="path3788"
       sodipodi:cx="79.802048"
       sodipodi:cy="913.0874"
       sodipodi:rx="1.2626907"
       sodipodi:ry="3.4092648"
       d="m 81.064738,913.0874 a 1.2626907,3.4092648 0 1 1 -2.525381,0 1.2626907,3.4092648 0 1 1 2.525381,0 z"
       transform="matrix(-1.7506617,1.4917049,-0.96084055,-1.1276404,1098.2795,1909.6309)"
       inkscape:transform-center-x="5.8947239"
       inkscape:transform-center-y="1.1334989" />
    <path
       inkscape:transform-center-y="2.1521387"
       inkscape:transform-center-x="5.6037508"
       transform="matrix(-1.4611615,1.7762339,-1.1441121,-0.94116686,1228.4073,1715.0153)"
       d="m 81.064738,913.0874 a 1.2626907,3.4092648 0 1 1 -2.525381,0 1.2626907,3.4092648 0 1 1 2.525381,0 z"
       sodipodi:ry="3.4092648"
       sodipodi:rx="1.2626907"
       sodipodi:cy="913.0874"
       sodipodi:cx="79.802048"
       id="path3790"
       style="fill:#3c8b3e;fill-opacity:1;stroke:#000000;stroke-width:1.08347261;stroke-linecap:round;stroke-linejoin:round;stroke-miterlimit:4;stroke-opacity:1;stroke-dasharray:none"
       sodipodi:type="arc" />
    <path
       sodipodi:type="arc"
       style="fill:#71c274;fill-opacity:1;stroke:#000000;stroke-width:1.08347261;stroke-linecap:round;stroke-linejoin:round;stroke-miterlimit:4;stroke-opacity:1;stroke-dasharray:none"
       id="path3792"
       sodipodi:cx="79.802048"
       sodipodi:cy="913.0874"
       sodipodi:rx="1.2626907"
       sodipodi:ry="3.4092648"
       d="m 81.064738,913.0874 a 1.2626907,3.4092648 0 1 1 -2.525381,0 1.2626907,3.4092648 0 1 1 2.525381,0 z"
       transform="matrix(-1.2832762,1.9087174,-1.2294477,-0.82658694,1281.3495,1609.3498)"
       inkscape:transform-center-x="5.3703814"
       inkscape:transform-center-y="2.6817842" />
    <path
       inkscape:transform-center-y="2.1371195"
       inkscape:transform-center-x="5.6094962"
       transform="matrix(-1.4659138,1.772314,-1.1415872,-0.94422785,1217.9482,1737.8478)"
       d="m 81.064738,913.0874 a 1.2626907,3.4092648 0 1 1 -2.525381,0 1.2626907,3.4092648 0 1 1 2.525381,0 z"
       sodipodi:ry="3.4092648"
       sodipodi:rx="1.2626907"
       sodipodi:cy="913.0874"
       sodipodi:cx="79.802048"
       id="path3794"
       style="fill:#77ab49;fill-opacity:1;stroke:#000000;stroke-width:1.08347261;stroke-linecap:round;stroke-linejoin:round;stroke-miterlimit:4;stroke-opacity:1;stroke-dasharray:none"
       sodipodi:type="arc" />
    <path
       sodipodi:type="arc"
       style="fill:#3c8b3e;fill-opacity:1;stroke:#000000;stroke-width:1.08347261;stroke-linecap:round;stroke-linejoin:round;stroke-miterlimit:4;stroke-opacity:1;stroke-dasharray:none"
       id="path3796"
       sodipodi:cx="79.802048"
       sodipodi:cy="913.0874"
       sodipodi:rx="1.2626907"
       sodipodi:ry="3.4092648"
       d="m 81.064738,913.0874 a 1.2626907,3.4092648 0 1 1 -2.525381,0 1.2626907,3.4092648 0 1 1 2.525381,0 z"
       transform="matrix(-1.8761373,1.3304544,-0.85697548,-1.2084621,991.98099,2023.5652)" />
    <path
       transform="matrix(-2.246784,0.49189604,-0.3168413,-1.447204,527.20613,2320.0921)"
       d="m 81.064738,913.0874 a 1.2626907,3.4092648 0 1 1 -2.525381,0 1.2626907,3.4092648 0 1 1 2.525381,0 z"
       sodipodi:ry="3.4092648"
       sodipodi:rx="1.2626907"
       sodipodi:cy="913.0874"
       sodipodi:cx="79.802048"
       id="path3798"
       style="fill:#71c274;fill-opacity:1;stroke:#000000;stroke-width:1.08347261;stroke-linecap:round;stroke-linejoin:round;stroke-miterlimit:4;stroke-opacity:1;stroke-dasharray:none"
       sodipodi:type="arc" />
    <path
       sodipodi:type="arc"
       style="fill:#71c274;fill-opacity:1;stroke:#000000;stroke-width:1.08347261;stroke-linecap:round;stroke-linejoin:round;stroke-miterlimit:4;stroke-opacity:1;stroke-dasharray:none"
       id="path3800"
       sodipodi:cx="79.802048"
       sodipodi:cy="913.0874"
       sodipodi:rx="1.2626907"
       sodipodi:ry="3.4092648"
       d="m 81.064738,913.0874 a 1.2626907,3.4092648 0 1 1 -2.525381,0 1.2626907,3.4092648 0 1 1 2.525381,0 z"
       transform="matrix(-2.1735718,-0.75205423,0.48441494,-1.4000464,-215.09341,2369.8118)" />
    <path
       transform="matrix(-1.9183186,-1.2688788,0.81731331,-1.235632,-543.67477,2243.7987)"
       d="m 81.064738,913.0874 a 1.2626907,3.4092648 0 1 1 -2.525381,0 1.2626907,3.4092648 0 1 1 2.525381,0 z"
       sodipodi:ry="3.4092648"
       sodipodi:rx="1.2626907"
       sodipodi:cy="913.0874"
       sodipodi:cx="79.802048"
       id="path3802"
       style="fill:#3c8b3e;fill-opacity:1;stroke:#000000;stroke-width:1.08347261;stroke-linecap:round;stroke-linejoin:round;stroke-miterlimit:4;stroke-opacity:1;stroke-dasharray:none"
       sodipodi:type="arc" />
    <path
       sodipodi:type="arc"
       style="fill:#71c274;fill-opacity:1;stroke:#000000;stroke-width:1.08347261;stroke-linecap:round;stroke-linejoin:round;stroke-miterlimit:4;stroke-opacity:1;stroke-dasharray:none"
       id="path3804"
       sodipodi:cx="79.802048"
       sodipodi:cy="913.0874"
       sodipodi:rx="1.2626907"
       sodipodi:ry="3.4092648"
       d="m 81.064738,913.0874 a 1.2626907,3.4092648 0 1 1 -2.525381,0 1.2626907,3.4092648 0 1 1 2.525381,0 z"
       transform="matrix(-2.2894973,0.21954907,-0.14141653,-1.4747166,351.31436,2338.1135)" />
    <path
       transform="matrix(-2.2609746,-0.42189312,0.2717508,-1.4563445,-39.207565,2378.7938)"
       d="m 81.064738,913.0874 a 1.2626907,3.4092648 0 1 1 -2.525381,0 1.2626907,3.4092648 0 1 1 2.525381,0 z"
       sodipodi:ry="3.4092648"
       sodipodi:rx="1.2626907"
       sodipodi:cy="913.0874"
       sodipodi:cx="79.802048"
       id="path3806"
       style="fill:#77ab49;fill-opacity:1;stroke:#000000;stroke-width:1.08347261;stroke-linecap:round;stroke-linejoin:round;stroke-miterlimit:4;stroke-opacity:1;stroke-dasharray:none"
       sodipodi:type="arc" />
    <path
       sodipodi:type="arc"
       style="fill:#3c8b3e;fill-opacity:1;stroke:#000000;stroke-width:1.08347261;stroke-linecap:round;stroke-linejoin:round;stroke-miterlimit:4;stroke-opacity:1;stroke-dasharray:none"
       id="path3808"
       sodipodi:cx="79.802048"
       sodipodi:cy="913.0874"
       sodipodi:rx="1.2626907"
       sodipodi:ry="3.4092648"
       d="m 81.064738,913.0874 a 1.2626907,3.4092648 0 1 1 -2.525381,0 1.2626907,3.4092648 0 1 1 2.525381,0 z"
       transform="matrix(-2.0286182,1.0838396,-0.6981255,-1.3066785,822.10689,2134.4575)" />
    <path
       transform="matrix(-1.463976,-1.7739149,1.1426185,-0.94297988,-909.10503,2023.0864)"
       d="m 81.064738,913.0874 a 1.2626907,3.4092648 0 1 1 -2.525381,0 1.2626907,3.4092648 0 1 1 2.525381,0 z"
       sodipodi:ry="3.4092648"
       sodipodi:rx="1.2626907"
       sodipodi:cy="913.0874"
       sodipodi:cx="79.802048"
       id="path3810"
       style="fill:#71c274;fill-opacity:1;stroke:#000000;stroke-width:1.08347261;stroke-linecap:round;stroke-linejoin:round;stroke-miterlimit:4;stroke-opacity:1;stroke-dasharray:none"
       sodipodi:type="arc" />
    <path
       sodipodi:type="arc"
       style="fill:#77ab49;fill-opacity:1;stroke:#000000;stroke-width:1.08347261;stroke-linecap:round;stroke-linejoin:round;stroke-miterlimit:4;stroke-opacity:1;stroke-dasharray:none"
       id="path3812"
       sodipodi:cx="79.802048"
       sodipodi:cy="913.0874"
       sodipodi:rx="1.2626907"
       sodipodi:ry="3.4092648"
       d="m 81.064738,913.0874 a 1.2626907,3.4092648 0 1 1 -2.525381,0 1.2626907,3.4092648 0 1 1 2.525381,0 z"
       transform="matrix(-2.0394925,-1.0632357,0.68485394,-1.313683,-454.51509,2304.9067)" />
    <path
       transform="matrix(-0.22698509,-2.2887721,1.4742495,-0.1462063,-1315.6438,1326.6541)"
       d="m 81.064738,913.0874 a 1.2626907,3.4092648 0 1 1 -2.525381,0 1.2626907,3.4092648 0 1 1 2.525381,0 z"
       sodipodi:ry="3.4092648"
       sodipodi:rx="1.2626907"
       sodipodi:cy="913.0874"
       sodipodi:cx="79.802048"
       id="path3814"
       style="fill:#3c8b3e;fill-opacity:1;stroke:#000000;stroke-width:1.08347261;stroke-linecap:round;stroke-linejoin:round;stroke-miterlimit:4;stroke-opacity:1;stroke-dasharray:none"
       sodipodi:type="arc" />
    <path
       sodipodi:type="arc"
       style="fill:#3c8b3e;fill-opacity:1;stroke:#000000;stroke-width:1.08347261;stroke-linecap:round;stroke-linejoin:round;stroke-miterlimit:4;stroke-opacity:1;stroke-dasharray:none"
       id="path3816"
       sodipodi:cx="79.802048"
       sodipodi:cy="913.0874"
       sodipodi:rx="1.2626907"
       sodipodi:ry="3.4092648"
       d="m 81.064738,913.0874 a 1.2626907,3.4092648 0 1 1 -2.525381,0 1.2626907,3.4092648 0 1 1 2.525381,0 z"
       transform="matrix(0.56864448,-2.2285968,1.4354894,0.36627658,-1331.791,849.12331)" />
    <path
       transform="matrix(1.2030651,-1.9602639,1.2626502,0.7749211,-1217.0063,451.43333)"
       d="m 81.064738,913.0874 a 1.2626907,3.4092648 0 1 1 -2.525381,0 1.2626907,3.4092648 0 1 1 2.525381,0 z"
       sodipodi:ry="3.4092648"
       sodipodi:rx="1.2626907"
       sodipodi:cy="913.0874"
       sodipodi:cx="79.802048"
       id="path3818"
       style="fill:#71c274;fill-opacity:1;stroke:#000000;stroke-width:1.08347261;stroke-linecap:round;stroke-linejoin:round;stroke-miterlimit:4;stroke-opacity:1;stroke-dasharray:none"
       sodipodi:type="arc" />
    <path
       sodipodi:type="arc"
       style="fill:#77ab49;fill-opacity:1;stroke:#000000;stroke-width:1.08347261;stroke-linecap:round;stroke-linejoin:round;stroke-miterlimit:4;stroke-opacity:1;stroke-dasharray:none"
       id="path3820"
       sodipodi:cx="79.802048"
       sodipodi:cy="913.0874"
       sodipodi:rx="1.2626907"
       sodipodi:ry="3.4092648"
       d="m 81.064738,913.0874 a 1.2626907,3.4092648 0 1 1 -2.525381,0 1.2626907,3.4092648 0 1 1 2.525381,0 z"
       transform="matrix(0.30247554,-2.2800238,1.4686147,0.19483113,-1327.4939,995.96221)" />
    <path
       transform="matrix(1.0938971,-2.0232125,1.3031968,0.70460362,-1244.5058,502.03869)"
       d="m 81.064738,913.0874 a 1.2626907,3.4092648 0 1 1 -2.525381,0 1.2626907,3.4092648 0 1 1 2.525381,0 z"
       sodipodi:ry="3.4092648"
       sodipodi:rx="1.2626907"
       sodipodi:cy="913.0874"
       sodipodi:cx="79.802048"
       id="path3822"
       style="fill:#3c8b3e;fill-opacity:1;stroke:#000000;stroke-width:1.08347261;stroke-linecap:round;stroke-linejoin:round;stroke-miterlimit:4;stroke-opacity:1;stroke-dasharray:none"
       sodipodi:type="arc" />
    <path
       sodipodi:type="arc"
       style="fill:#3c8b3e;fill-opacity:1;stroke:#000000;stroke-width:1.08347261;stroke-linecap:round;stroke-linejoin:round;stroke-miterlimit:4;stroke-opacity:1;stroke-dasharray:none"
       id="path3824"
       sodipodi:cx="79.802048"
       sodipodi:cy="913.0874"
       sodipodi:rx="1.2626907"
       sodipodi:ry="3.4092648"
       d="m 81.064738,913.0874 a 1.2626907,3.4092648 0 1 1 -2.525381,0 1.2626907,3.4092648 0 1 1 2.525381,0 z"
       transform="matrix(2.0292448,-1.082666,0.69736968,1.3070822,-769.87842,-132.34816)" />
    <path
       transform="matrix(2.2995429,0.04585683,-0.02953727,1.4811873,-115.96233,-373.07035)"
       d="m 81.064738,913.0874 a 1.2626907,3.4092648 0 1 1 -2.525381,0 1.2626907,3.4092648 0 1 1 2.525381,0 z"
       sodipodi:ry="3.4092648"
       sodipodi:rx="1.2626907"
       sodipodi:cy="913.0874"
       sodipodi:cx="79.802048"
       id="path3826"
       style="fill:#71c274;fill-opacity:1;stroke:#000000;stroke-width:1.08347261;stroke-linecap:round;stroke-linejoin:round;stroke-miterlimit:4;stroke-opacity:1;stroke-dasharray:none"
       sodipodi:type="arc" />
  </g>
</svg>
